<svg xmlns="http://www.w3.org/2000/svg" width="30" height="34" viewBox="0 0 30 34">
  <path id="路径_2228" data-name="路径 2228" d="M29.667,3.091H22.7a5.119,5.119,0,0,0-9.4,0H6.333A3.228,3.228,0,0,0,3,6.182V30.909A3.228,3.228,0,0,0,6.333,34H29.667A3.228,3.228,0,0,0,33,30.909V6.182A3.228,3.228,0,0,0,29.667,3.091ZM18,3.091a1.614,1.614,0,0,1,1.667,1.545,1.671,1.671,0,0,1-3.333,0A1.614,1.614,0,0,1,18,3.091ZM29.667,30.909H6.333V6.182H9.667v4.636H26.333V6.182h3.333Z" transform="translate(-3)" fill="#d8d7d5"/>
</svg>
